<?xml version="1.0" encoding="UTF-8" standalone="no"?>
<!-- Created with Inkscape (http://www.inkscape.org/) -->

<svg
   xmlns:dc="http://purl.org/dc/elements/1.1/"
   xmlns:cc="http://creativecommons.org/ns#"
   xmlns:rdf="http://www.w3.org/1999/02/22-rdf-syntax-ns#"
   xmlns:svg="http://www.w3.org/2000/svg"
   xmlns="http://www.w3.org/2000/svg"
   xmlns:sodipodi="http://sodipodi.sourceforge.net/DTD/sodipodi-0.dtd"
   xmlns:inkscape="http://www.inkscape.org/namespaces/inkscape"
   width="210mm"
   height="297mm"
   viewBox="0 0 744.09448819 1052.3622047"
   id="svg2"
   version="1.1"
   inkscape:version="0.91 r13725"
   sodipodi:docname="ego2.svg">
  <defs
     id="defs4" />
  <sodipodi:namedview
     id="base"
     pagecolor="#ffffff"
     bordercolor="#666666"
     borderopacity="1.0"
     inkscape:pageopacity="0.0"
     inkscape:pageshadow="2"
     inkscape:zoom="0.98994949"
     inkscape:cx="220.4819"
     inkscape:cy="536.15646"
     inkscape:document-units="px"
     inkscape:current-layer="layer1"
     showgrid="false"
     inkscape:window-width="1920"
     inkscape:window-height="1017"
     inkscape:window-x="-8"
     inkscape:window-y="-8"
     inkscape:window-maximized="1" />
  <metadata
     id="metadata7">
    <rdf:RDF>
      <cc:Work
         rdf:about="">
        <dc:format>image/svg+xml</dc:format>
        <dc:type
           rdf:resource="http://purl.org/dc/dcmitype/StillImage" />
        <dc:title></dc:title>
      </cc:Work>
    </rdf:RDF>
  </metadata>
  <g
     inkscape:label="Layer 1"
     inkscape:groupmode="layer"
     id="layer1">
    <path
       style="fill:#1f1f1f"
       d="m 336.48242,261.9375 c -30.68869,1.19839 -58.39228,17.39463 -82.76953,34.79297 -49.35624,36.82492 -88.04411,86.93074 -114.7832,142.17578 -30.00538,-1.08145 -61.409833,-6.97507 -86.820091,-23.73909 -16.274572,-11.19023 -25.654211,-31.21464 -23.746318,-50.86638 0.280047,-4.68797 -6.789758,-7.04326 -8.558593,-2.20898 -2.443159,9.18669 -0.829896,19.18974 1.578124,28.25586 9.183917,26.0692 35.104947,41.45786 60.337891,49 17.181072,5.5019 35.612347,7.30395 53.166017,9.13476 -13.89325,35.91427 -24.17759,74.99244 -18.59232,113.71538 3.15989,23.06904 16.61009,45.65762 38.53763,55.18501 25.81435,13.23095 57.06109,6.78325 80.99609,-7.48047 31.34787,-19.06675 54.90274,-48.58803 73.89876,-79.48757 9.01678,-15.86922 17.48681,-32.1127 24.36101,-49.03586 0.65269,36.71545 0.31257,73.43904 0.40039,110.1582 -23.33871,46.13228 -47.09185,93.68287 -53.97656,145.5332 -1.76143,22.73046 0.18214,46.50833 9.70703,67.46289 3.10838,6.71193 9.19596,14.25113 17.5332,12.27149 9.89014,-2.84063 14.01234,-13.97299 17.59961,-22.56446 11.59878,-33.78199 14.32166,-69.85358 15.89628,-105.30222 0.95028,-31.70534 0.9897,-63.43021 1.45333,-95.14504 17.84779,-30.60032 34.91388,-62.37168 59.39844,-88.30469 2.05154,-1.09696 6.08865,-7.68581 7.28516,-3.16992 5.33027,16.03435 1.62562,33.25208 4.1914,49.68555 1.35012,4.4382 7.57915,3.94715 9.30469,-0.0391 6.61228,-12.58399 7.38955,-27.32303 9.18555,-41.18945 1.19533,-11.98156 1.19251,-24.03849 0.69921,-36.05859 43.61317,3.10478 87.44991,3.39437 131.12513,1.50203 50.62278,-4.45117 100.78283,-15.20564 148.72058,-32.09188 4.34123,-2.17926 12.36225,-3.67466 12.00586,-9.85156 -2.10974,-4.81038 -8.4667,-1.46651 -11.875,-0.0801 -32.67166,12.91286 -67.46975,20.9669 -102.14649,27.21485 -59.90345,10.45537 -121.07417,7.47734 -181.53125,3.86718 -5.19684,-0.55215 -7.25044,5.04591 -6.01562,9.26563 2.21731,15.90162 0.35916,32.05611 -1.64453,47.88086 -1.21138,-9.78355 -0.54993,-21.54539 -7.96289,-29.08008 -5.94025,-4.72339 -12.9046,1.75447 -17.1836,5.71484 -21.58386,22.80286 -36.94333,50.58164 -53.14648,77.20703 -0.51134,-35.59817 0.48566,-71.24329 -1.10547,-106.8125 0.50191,-4.18464 -2.60894,-10.07993 -7.44922,-7.375 -5.81908,5.92898 -7.14884,15.04135 -10.92758,22.18882 -18.99687,44.71729 -46.38237,87.72661 -86.84132,115.73104 -20.50818,13.82196 -47.18511,20.17978 -71.18422,13.16218 -19.71471,-6.13012 -34.53821,-23.47186 -39.36329,-43.41407 -5.13335,-19.82817 -3.57969,-41.01076 -0.51367,-61.06445 4.04598,-20.50111 10.05342,-40.36958 17.75196,-59.72266 55.98338,-0.6684 112.52505,-14.08938 160.32054,-43.92681 32.94475,-20.61298 64.0049,-48.18888 78.8025,-84.97944 5.57583,-13.82024 6.83642,-32.03741 -4.65429,-43.30273 -10.3852,-11.16153 -26.72182,-14.99331 -41.46485,-14.8125 z m 0.27344,8.48242 c 14.96294,0.0196 33.48948,4.67804 39.73047,19.9043 5.19818,16.28169 -4.15655,32.50878 -12.13867,46.18945 -21.08922,33.28519 -54.56846,56.6708 -89.22116,74.17015 -38.99667,18.64843 -81.85324,28.24463 -124.85427,28.3354 -4.71397,1.2845 0.45531,-4.41095 0.57561,-6.06781 22.57132,-41.55829 50.27585,-80.77717 86.11017,-111.95354 25.97204,-22.36471 55.49998,-43.29163 89.58691,-49.77717 3.3781,-0.51831 6.79336,-0.78581 10.21094,-0.80078 z m -2.45117,349.57617 c 0.15506,43.43325 -0.97745,87.02088 -6.81836,130.03516 -3.46686,18.60192 -6.26932,38.07613 -16.69141,54.3125 -2.12055,3.92716 -7.80073,5.51468 -10.28125,0.97656 -8.09634,-12.58858 -10.48364,-28.22375 -11.80469,-42.75195 -2.82275,-31.59924 7.5063,-62.60495 18.27649,-91.95891 7.77429,-20.49253 17.20147,-40.30629 27.16883,-59.81062 0.0501,3.06575 0.10026,6.13151 0.15039,9.19726 z"
       id="path4147"
       inkscape:connector-curvature="0" />
  </g>
</svg>
